<?xml version="1.0" encoding="utf-8"?>
<!-- Generator: Adobe Illustrator 19.0.0, SVG Export Plug-In . SVG Version: 6.00 Build 0)  -->
<svg version="1.1" id="Layer_1" xmlns="http://www.w3.org/2000/svg" xmlns:xlink="http://www.w3.org/1999/xlink" x="0px" y="0px"
	 viewBox="-290 392.3 29.9 9.7" style="enable-background:new -290 392.3 29.9 9.7;" xml:space="preserve">
<style type="text/css">
	.st0{fill:url(#SVGID_1_);}
	.st1{fill:#FFFFFF;}
</style>
<g>
	
		<linearGradient id="SVGID_1_" gradientUnits="userSpaceOnUse" x1="-289.9996" y1="399.7103" x2="-269.4073" y2="399.7103" gradientTransform="matrix(1 0 0 -1 0 796.644)">
		<stop  offset="0" style="stop-color:#0088C3"/>
		<stop  offset="0.5153" style="stop-color:#00B49D"/>
		<stop  offset="1" style="stop-color:#00A65D"/>
	</linearGradient>
	<path class="st0" d="M-269.4,398l-1.2-2c0-0.1-0.1-0.1-0.2-0.2l-2.9-1.4c0,0,0,0,0,0l-2.6-2.1c0,0,0,0,0,0c0,0,0,0,0,0c0,0,0,0,0,0
		c0,0,0,0,0,0c0,0,0,0,0,0l0,0l0,0c0,0,0,0,0,0l-3,2.4l-1.6-0.7c0,0,0,0,0,0l-1.6-1.4l0,0l0,0h0c0,0,0,0,0,0c0,0,0,0,0,0
		c0,0,0,0,0,0c0,0,0,0,0,0l0,0l-2.6,2.1c0,0,0,0,0,0c0,0,0,0,0,0c0,0,0,0,0,0l-1.4,2.6c0,0,0,0,0,0c0,0,0,0,0,0c0,0,0,0,0,0
		c0,0,0,0,0,0l-3.3,4.1c0,0,0,0,0,0c0,0,0,0,0,0c0,0,0,0,0,0l5.5-1.3c0,0,0,0,0,0l0,0l1.7-1.6c0,0,0,0,0,0c0,0,0,0,0,0c0,0,0,0,0,0
		v-1.8l1.8,0.7c0,0,0,0,0,0c0,0,0,0,0,0c0,0,0,0,0,0c0,0,0,0,0,0v0l1.7,1.5c0,0,0,0,0,0v0c0,0,0,0,0,0c0,0,0,0,0,0c0,0,0,0,0,0
		c0,0,0,0,0,0c0,0,0,0,0,0l2-1.7c0,0,0,0,0,0c0,0,0,0,0,0c0,0,0,0,0-0.1l0.4-2.5l1.3,1.8c0,0,0,0,0,0c0,0,0,0,0,0l0.3,2c0,0,0,0,0,0
		l0,0c0,0,0,0,0,0c0,0,0,0,0,0c0,0,0,0,0,0c0,0,0,0,0,0c0,0,0,0,0,0c0,0,0,0,0,0c0,0,0,0,0,0c0,0,0,0,0,0c0,0,0,0,0,0h0l3-0.9
		c0,0,0,0,0,0l2.4,0.4c0,0,0,0,0,0c0,0,0.1,0,0.1-0.1C-269.4,398.1-269.4,398-269.4,398z M-284.5,400.2l-1.2-1.6l-1-1.2l3.8,1.2
		L-284.5,400.2z M-276.8,394.5l-0.7,0.1l-1.7,0.2l2.7-2.2L-276.8,394.5z M-279.4,394.9l2,2.2l-2.3-0.4L-279.4,394.9z M-279.5,395
		l0,0.3l-0.2,1.5l-1.1,0.6L-279.5,395z M-285.3,394.8l1.5-0.2l0.1,0l0.5,1.3l0.3,0.8l-1.8-1.3L-285.3,394.8z M-282.9,396.2l-0.7-1.7
		l2.5-0.4l-1.6,2.6L-282.9,396.2z M-282.8,398.6l-3.8-1.2l3.8-0.6V398.6z M-273.7,394.7l2.6,1.2l-4,0.5L-273.7,394.7z M-271.2,396.3
		l-0.9,1.3c0,0,0,0,0,0l-2.3,0.7L-271.2,396.3z M-275.9,394.5l-0.8,0l0.3-2l2.4,2L-275.9,394.5z M-279.5,394.8L-279.5,394.8
		l-1.3,2.5l-0.2-3.2L-279.5,394.8z M-283.5,394.5l-0.2,0l0.6-1.2l0.3-0.5l1.6,1.3L-283.5,394.5z M-282.9,392.8l-0.9,1.7l-1.5,0.2
		L-282.9,392.8z M-285.3,394.8l2.5,1.9l-3.8,0.6L-285.3,394.8z M-289.9,401.5l3.2-4.1l2,2.6l0.2,0.3L-289.9,401.5z M-282.4,396.4
		l1.3-2.1l0.2,3.2l-1.8-0.7L-282.4,396.4z M-280.8,397.5l0.3-0.1l0.8-0.5l0.3,1.4l0.1,0.6L-280.8,397.5z M-279.2,398.9l-0.3-1.6
		l-0.1-0.3l2.3,0.4L-279.2,398.9z M-277.2,397.1l-2.1-2.2l2.4-0.2L-277.2,397.1z M-273.9,394.6l-1.4,1.8l-1.3-1.8L-273.9,394.6z
		 M-272,396.2l0.8-0.1l-2,1.2l-1.8,1.1l-0.3-1.8L-272,396.2z M-271.8,397.6l1-1.4l1,1.7L-271.8,397.6z"/>
	<g>
		<g>
			<polygon class="st1" points="-266.5,401.3 -267.5,401.3 -267.7,400.9 -266.4,400.9 			"/>
		</g>
		<polygon class="st1" points="-279,400 -281.5,400 -281.5,400.3 -280.5,400.3 -280.5,402 -280.1,402 -280.1,400.3 -279,400.3 		"/>
		<g>
			<rect x="-276.6" y="400" class="st1" width="0.4" height="2"/>
		</g>
		<polygon class="st1" points="-276.6,400.8 -278.4,400.8 -278.4,400 -278.8,400 -278.8,402 -278.4,402 -278.4,401.1 -276.8,401.1 
					"/>
		<polygon class="st1" points="-268.2,402 -267.3,400.3 -266.7,400.3 -265.8,402 -265.3,402 -266.5,400 -267.5,400 -268.7,402 		"/>
		<path class="st1" d="M-260.7,400.8h-1.1v0l0,0c-0.1,0-0.2-0.1-0.2-0.2s0.1-0.2,0.2-0.2l0,0h1.2v0l0,0c0.1,0,0.2,0,0.2,0.1l0.3-0.2
			c-0.1-0.2-0.3-0.3-0.5-0.3l0,0h-1.2l0,0c-0.3,0-0.6,0.3-0.6,0.6c0,0.3,0.3,0.6,0.6,0.6h1.1l0,0l0,0c0.1,0,0.3,0.1,0.3,0.2l0,0
			c0,0.1-0.1,0.3-0.3,0.3l0,0h-1.2l0,0l0,0c-0.1,0-0.2-0.1-0.2-0.1l-0.3,0.2c0.1,0.2,0.3,0.4,0.6,0.4h1.2c0.3,0,0.6-0.3,0.6-0.6
			S-260.4,400.8-260.7,400.8z"/>
		<path class="st1" d="M-263.7,400.9v0.4h0.3l0.3,0l0,0c-0.1,0.2-0.3,0.3-0.5,0.3l0,0h-0.9v0c-0.3,0-0.5-0.2-0.5-0.5v-0.4h0
			c0-0.2,0.2-0.4,0.4-0.4l0,0h1v0c0,0,0,0,0,0c0.2,0,0.3,0.1,0.4,0.2l0.3-0.2c-0.1-0.2-0.4-0.4-0.7-0.4l0,0h-1l0,0
			c-0.4,0-0.8,0.4-0.8,0.8l0,0v0.4c0,0.5,0.4,0.9,0.9,0.9v0h0.9v0c0.5,0,0.9-0.4,0.9-0.9l0,0v-0.2H-263.7z"/>
		<polygon class="st1" points="-280.5,400.3 -280.5,400.3 -280.5,400.3 		"/>
		<polygon class="st1" points="-269.7,400 -270.5,400.9 -271.2,400 -272,400 -272,402 -271.6,402 -271.6,400.3 -271.4,400.3 
			-270.6,401.3 -270.3,401.3 -269.5,400.3 -269.3,400.3 -269.3,402 -268.9,402 -268.9,400 		"/>
		<g>
			<polygon class="st1" points="-273.7,401.1 -273.7,400.8 -275.3,400.8 -275.1,401.1 			"/>
			<polygon class="st1" points="-275.3,401.6 -275.3,400.8 -275.3,400.3 -273.3,400.3 -273.3,400 -275.7,400 -275.7,402 -273.3,402 
				-273.3,401.6 			"/>
		</g>
	</g>
</g>
</svg>
