<?xml version="1.0" encoding="utf-8"?>
<!-- Generator: Adobe Illustrator 19.0.0, SVG Export Plug-In . SVG Version: 6.00 Build 0)  -->
<svg version="1.1" id="Layer_1" xmlns="http://www.w3.org/2000/svg" xmlns:xlink="http://www.w3.org/1999/xlink" x="0px" y="0px"
	 viewBox="0 0 75 24" style="enable-background:new 0 0 75 24;" xml:space="preserve">
<style type="text/css">
	.st0{opacity:0.58;fill:#7ED0DC;enable-background:new    ;}
</style>
<path id="XMLID_3_" class="st0" d="M20.9,12l-8,12l-8-12l8-12L20.9,12z"/>
<path id="XMLID_2_" class="st0" d="M15.7,9.8L12.9,24L1,15.8L3.9,1.7L15.7,9.8z"/>
<path id="XMLID_1_" class="st0" d="M24.9,16l-12,8l-3-14.2l11.9-8.2L24.9,16z"/>
<path id="XMLID_12_" class="st0" d="M31.3,16.3V4.4h4.9c0.5,0,1,0.1,1.4,0.4s0.8,0.5,1.2,0.8c0.4,0.4,0.6,0.7,0.7,1.2
	c0.2,0.5,0.2,1,0.2,1.4s-0.1,1-0.2,1.4c-0.1,0.5-0.4,0.8-0.7,1.2c-0.4,0.4-0.7,0.6-1.1,0.8c-0.5,0.2-1,0.4-1.4,0.4h-3.6v4.2H31.3z
	 M32.8,10.7h3.5c0.4,0,0.6-0.1,0.8-0.2s0.5-0.4,0.6-0.5c0.1-0.2,0.4-0.5,0.4-0.8s0.2-0.6,0.2-1c0-0.4,0-0.7-0.1-1
	c-0.1-0.4-0.2-0.6-0.5-0.8C37.5,6.1,37.3,6,37,5.9c-0.2-0.1-0.6-0.2-0.8-0.2h-3.4V10.7z M42,18.7c0.1,0,0.2,0,0.5,0
	c0.1,0,0.2,0,0.4,0c0.1,0,0.2,0,0.4-0.1c0.1-0.1,0.2-0.2,0.4-0.4s0.2-0.5,0.4-0.7c0.1-0.4,0.4-0.7,0.5-1.2l-3.7-8.8h1.6l3,7.4
	L48,7.6h1.2l-4.3,11c-0.1,0.4-0.4,0.7-0.8,1.1c-0.4,0.2-0.8,0.5-1.6,0.5c-0.1,0-0.2,0-0.4,0c-0.1,0-0.2,0-0.4-0.1v-1.3H42z
	 M55.2,15.8c-0.1,0-0.2,0.1-0.4,0.1c-0.1,0.1-0.4,0.1-0.5,0.2c-0.1,0.1-0.4,0.1-0.6,0.1c-0.2,0-0.5,0-0.7,0c-0.5,0-1-0.1-1.4-0.5
	c-0.4-0.2-0.6-0.7-0.6-1.4V8.8h-1.2V7.6H51V4.7h1.4v2.9h1.9v1.2h-1.9v5.4c0,0.4,0.1,0.6,0.4,0.7c0.2,0.1,0.4,0.2,0.7,0.2
	c0.2,0,0.6,0,0.8-0.1s0.4-0.1,0.5-0.2L55.2,15.8z M60.3,16.4c-0.7,0-1.3-0.1-1.8-0.4c-0.6-0.2-1-0.6-1.4-1c-0.4-0.4-0.7-0.8-1-1.4
	c-0.2-0.6-0.4-1.1-0.4-1.8c0-0.6,0.1-1.2,0.4-1.8c0.2-0.6,0.5-1.1,1-1.4c0.5-0.4,0.8-0.7,1.4-1c0.6-0.2,1.2-0.4,1.8-0.4
	s1.3,0.1,1.8,0.4c0.6,0.2,1,0.6,1.4,1c0.4,0.4,0.7,0.8,0.8,1.4c0.2,0.6,0.4,1.2,0.4,1.8c0,0.1,0,0.2,0,0.4c0,0.1,0,0.1,0,0.2h-7.3
	c0,0.5,0.1,0.8,0.4,1.2c0.1,0.4,0.4,0.7,0.6,1s0.6,0.5,1,0.6c0.4,0.1,0.7,0.2,1.1,0.2c0.2,0,0.5,0,0.8-0.1c0.4-0.1,0.5-0.1,0.7-0.2
	c0.2-0.1,0.5-0.2,0.6-0.5c0.1-0.1,0.4-0.4,0.4-0.6l1.3,0.4c-0.2,0.2-0.5,0.5-0.7,0.7c-0.2,0.2-0.6,0.5-0.8,0.7
	c-0.4,0.2-0.7,0.4-1.1,0.5C61.3,16.4,60.8,16.4,60.3,16.4z M63.3,11.4c0-0.4-0.1-0.8-0.4-1.2c-0.2-0.4-0.4-0.6-0.6-1
	c-0.2-0.2-0.6-0.5-1-0.6c-0.4-0.1-0.7-0.2-1.1-0.2c-0.4,0-0.7,0.1-1.1,0.2c-0.4,0.1-0.6,0.4-1,0.6c-0.2,0.2-0.5,0.6-0.6,0.8
	c-0.1,0.4-0.2,0.7-0.2,1.2h5.9V11.4z M72.6,16.3l-3-4.3l-1.7,1.6v2.8h-1.4V4.1h1.4v8l4.6-4.6h1.7l-3.5,3.6l3.7,5.2H72.6z"/>
</svg>
