<svg xmlns="http://www.w3.org/2000/svg">
	<symbol id="pytek" viewBox ="0 0 90 25">
		<path d="M23.1 12.5l-9.3 12.3-9.3-12.3L13.8.2l9.3 12.3z" style="opacity:0.5" />
		<path d="M17.1 10.3l-3.3 14.5L0 16.4 3.4 1.9l13.7 8.4z" style="opacity:0.5" />
		<path d="M27.6 16.6l-13.9 8.3-3.3-14.5L24.2 2l3.4 14.6z" style="opacity:0.5" />
		<path d="M37.6 16.5V5.1h5.9c.6 0 1.2.1 1.7.3.5.2 1 .5 1.3.8.4.3.7.7.9 1.1.2.4.3.9.3 1.3 0 .5-.1.9-.3 1.4-.2.4-.5.8-.8 1.1-.4.3-.8.6-1.3.8-.5.2-1.1.3-1.7.3H39v4.2h-1.4zm1.4-5.2h4.5c.4 0 .8-.1 1.1-.2.3-.1.6-.3.9-.6.2-.2.4-.5.6-.8.1-.3.2-.6.2-1s-.1-.7-.2-1c-.2-.3-.4-.6-.6-.8l-.9-.6c-.4-.1-.7-.2-1.1-.2H39v5.2zM51 19h.6c.2 0 .4 0 .6-.1.1-.1.3-.2.4-.4.1-.2.3-.4.4-.8.2-.3.4-.8.7-1.4L49.2 8h1.4l3.9 7.3L58 8.2h1.3l-5.4 10.7c-.1.3-.4.6-.7.8-.3.2-.8.3-1.4.3H51v-1zm15.8-2.9c-.1 0-.2.1-.3.1-.2.1-.3.1-.5.2s-.4.1-.7.1c-.3 0-.5.1-.8.1-.3 0-.6 0-.8-.1-.3-.1-.5-.2-.7-.3-.2-.1-.4-.3-.5-.5-.1-.2-.2-.4-.2-.7V9h-1.4v-.8h1.4V5.4h1.4v2.8H66V9h-2.4v5.7c0 .3.2.5.4.7.2.1.5.2.8.2.4 0 .7-.1 1-.2.3-.1.5-.2.6-.2l.4.9zm6.5.5c-.8 0-1.5-.1-2.1-.3-.6-.2-1.2-.5-1.6-.9-.5-.4-.8-.9-1.1-1.4-.3-.5-.4-1.1-.4-1.7 0-.6.1-1.1.4-1.7.3-.5.6-1 1.1-1.4.5-.4 1-.7 1.6-.9.6-.2 1.3-.3 2.1-.3s1.5.1 2.1.3c.6.3 1.1.6 1.6 1s.8.8 1.1 1.4c.3.5.4 1.1.4 1.6v.5h-8.9c0 .4.2.9.4 1.2.2.4.5.7.8 1 .3.3.7.5 1.2.6.4.2.9.2 1.4.2.3 0 .7 0 1-.1l.9-.3c.3-.1.5-.3.8-.5.2-.2.4-.4.5-.6l1.2.3c-.2.3-.4.6-.7.8-.3.3-.6.5-1 .7-.4.2-.8.3-1.3.4-.5.1-1 .1-1.5.1zm3.8-4.7c0-.4-.2-.9-.4-1.2-.2-.4-.5-.7-.8-1-.3-.3-.7-.5-1.2-.6-.4-.1-.9-.2-1.4-.2s-1 .1-1.4.2c-.5.1-.8.4-1.2.6-.3.3-.6.6-.8 1-.2.4-.3.8-.4 1.2h7.6zm11.5 4.6l-3.8-4.3-2.2 1.7v2.6h-1.4V4.8h1.4v7.9l5.9-4.6H90l-4.3 3.4 4.4 4.9h-1.5z"/>
	</symbol>
	<symbol id="search" viewBox="0 0 100 100">
			<path d="M42.1 75.9c-18.6 0-33.8-15.1-33.8-33.8 0-18.6 15.1-33.8 33.8-33.8 18.6 0 33.8 15.2 33.8 33.8 0 18.7-15.1 33.8-33.8 33.8m56.7 17l-24-24c6-7.3 9.6-16.6 9.6-26.7C84.3 18.9 65.4 0 42.1 0 18.9 0 0 18.9 0 42.1s18.9 42.1 42.1 42.1c10.1 0 19.4-3.6 26.7-9.5l24 24c1.6 1.6 4.3 1.6 5.9 0 1.7-1.5 1.7-4.2.1-5.8"/>
	</symbol>
	<symbol id="nav-logo" viewBox="0 0 100 100" preserveAspectRatio="none">
		<path d="M0 79.9V20.1h20.1v59.8H0zM100 20.1H0V0h100v20.1zM100.1 59.9H41.2V39.8h58.9v20.1zM100 100H0V79.9h100V100z"/>
	</symbol>
	<symbol id="photo" viewBox="-31 159.4 548.2 475.1">
		<path d="M495.8 253.9c-14.3-14.3-31.5-21.4-51.7-21.4h-64l-14.6-38.8c-3.6-9.3-10.2-17.4-19.8-24.1-9.6-6.8-19.5-10.1-29.6-10.1H170c-10.1 0-19.9 3.4-29.6 10.1-9.6 6.8-16.2 14.8-19.8 24.1L106 232.5H42c-20.2 0-37.4 7.1-51.7 21.4-14.2 14.3-21.3 31.5-21.3 51.7v255.8c0 20.2 7.1 37.4 21.4 51.7 14.3 14.3 31.5 21.4 51.7 21.4h402c20.2 0 37.4-7.1 51.7-21.4 14.3-14.3 21.4-31.5 21.4-51.7V305.6c0-20.2-7.2-37.4-21.4-51.7zM333.4 523.8c-25 25-55.1 37.5-90.4 37.5-35.2 0-65.3-12.5-90.4-37.5-25-25-37.5-55.2-37.5-90.4s12.5-65.3 37.5-90.4c25-25 55.1-37.5 90.4-37.5 35.2 0 65.3 12.5 90.4 37.5 25 25 37.5 55.1 37.5 90.4.1 35.3-12.4 65.4-37.5 90.4zm-90.3-172.6c-22.7 0-42 8-58.1 24.1s-24.1 35.4-24.1 58.1c0 22.6 8 42 24.1 58.1s35.4 24.1 58.1 24.1c22.6 0 42-8 58.1-24.1s24.1-35.4 24.1-58.1c0-22.7-8-42-24.1-58.1-16.1-16-35.5-24.1-58.1-24.1z"/>
	</symbol>
	<symbol id="video" viewBox="584.6 348.6 138.7 96.8">
		<path d="M705.1 348.6H602.8c-10.1 0-18.2 8.1-18.2 18.2V427c0 10.2 8.1 18.3 18.2 18.3h102.3c10.1 0 18.2-8.1 18.2-18.2v-60.3c0-10-8.1-18.2-18.2-18.2zM643 421.5v-49l32.3 24.5-32.3 24.5zm0 0"/>
	</symbol>
	<symbol id="download-icon" viewBox="0 0 50 50">
		<path d="M15.6 18.5c-1-1-.8-1.7.6-1.7h5.9V4c0-2.2 1.8-4 4-4s4 1.8 4 4v12.8H36c1.5 0 1.7.7.6 1.7L26.1 29.1 15.6 18.5zM49 25.8h-6c-.6 0-1 .4-1 1v17.9H10.8V26.8c0-.6-.4-1-1-1h-6c-.6 0-1 .4-1 1v20.5c0 3 2.5 5.5 5.5 5.5h36.2c3 0 5.5-2.5 5.5-5.5V26.8c0-.6-.4-1-1-1z"/>
	</symbol>
	<symbol id="address-icon" viewBox="0 0 20 20">
		<path d="M17.1 11.1c0 .1 0 .1 0 0v6c0 .2-.1.4-.2.6-.2.2-.3.2-.6.2h-4.8v-4.8H8.4V18H3.6c-.2 0-.4-.1-.6-.2-.2-.2-.2-.3-.2-.6v-6L10 5.3l7.1 5.8zm2.8-1.3l-2.7-2.3v-5c0-.1 0-.2-.1-.3-.1-.1-.2-.1-.3-.1h-2.4c-.1 0-.2 0-.3.1-.1.1-.1.2-.1.3v2.4l-3-2.5c-.3-.3-.6-.4-1-.4s-.7.1-.9.4l-9 7.4c0 .1-.1.2-.1.3 0 .1 0 .2.1.3l.8.9c.1.1.2.1.3.1.1 0 .2 0 .3-.1L10 4.2l8.6 7.2c.1.1.2.1.3.1.1 0 .2-.1.3-.1l.8-.9c.1-.1.1-.2.1-.3-.1-.2-.2-.3-.2-.4z"/>
	</symbol>
	<symbol id="clock-icon" viewBox="0 0 20 20">
		<path d="M18.3 9.6H20C19.8 4.4 15.6.2 10.4 0v1.7h-.8V0C4.4.2.2 4.4 0 9.6h1.7v.8H0c.2 5.2 4.4 9.4 9.6 9.6v-1.7h.8V20c5.2-.2 9.4-4.4 9.6-9.6h-1.7v-.8zm-4.2.8H9.6V3.6h.8v6h3.7v.8z"/>
	</symbol>
	<symbol id="phone-icon" viewBox="0 0 20 20">
		<path d="M20 15.5c-.1-.2-.4-.4-1.1-.8l-.8-.4c-.3-.2-.6-.3-.9-.5-.3-.2-.5-.3-.8-.4l-.4-.2c-.2-.1-.4-.2-.5-.3-.1-.1-.3-.1-.4-.1-.2 0-.4.1-.7.4-.3.3-.5.6-.8.9-.2.3-.5.6-.8.9-.3.3-.5.4-.7.4-.1 0-.2 0-.3-.1-.1 0-.2-.1-.3-.1-.1 0-.2-.1-.3-.2-.2-.1-.3-.2-.3-.2-1.3-.7-2.4-1.5-3.3-2.5-.9-.9-1.8-2-2.5-3.3 0 0-.1-.1-.2-.3.1-.2 0-.3 0-.4 0-.1-.1-.2-.1-.3 0-.1-.1-.2-.1-.3 0-.2.1-.4.4-.7.3-.2.6-.5.9-.7.3-.2.6-.5.9-.8.2-.3.4-.5.4-.7 0-.1 0-.3-.1-.4-.1-.1-.2-.3-.3-.5l-.3-.3c-.1-.3-.3-.5-.4-.8-.2-.3-.3-.6-.5-.9-.2-.3-.3-.6-.4-.8-.4-.6-.6-1-.8-1.1h-.3c-.3 0-.6 0-1 .1s-.7.2-1 .3c-.5.2-1 .8-1.5 1.7-.5 1-.7 1.8-.7 2.7v.7c0 .2.1.5.2.8.1.3.2.5.2.7.1.1.1.4.3.8.2.4.3.7.3.7.3.9.7 1.8 1.2 2.5.7 1.2 1.8 2.5 3.1 3.8 1.3 1.3 2.5 2.3 3.8 3.1.7.5 1.6.8 2.5 1.2.1 0 .3.1.7.3.4.1.6.2.8.3.1.1.4.1.7.2.3.1.6.1.8.2h.7c.9 0 1.8-.2 2.6-.7 1-.5 1.5-1 1.7-1.5.1-.2.2-.6.3-1 .1-.4.1-.7.1-1v-.4z"/>
	</symbol>
	<symbol id="close-icon" viewBox="0 0 20 20">
		<path d="M18.9 0L20 1.1 11.1 10l8.9 8.9-1.1 1.1-8.9-8.9L1.1 20 0 18.9 8.9 10 0 1.1 1.1 0 10 8.9 18.9 0z"/>
	</symbol>
	<symbol id="2dialog-icon" viewBox="0 0 50 50">
		<path d="M48.8 50c-.5 0-.9-.3-1.1-.7l-2.9-7.2c-1.5-3.6-3.2-5.5-5.6-5.9l-.5 2.8.8 7.5c0 .4-.1.8-.4 1L37.2 49c-.2.2-.5.3-.7.3h-.7c-.3 0-.5-.1-.7-.3l-1.9-1.5c-.3-.2-.5-.6-.4-1l.8-7.5-.6-2.8c-2.4.4-4.1 2.3-5.6 5.9l-2.9 7.2c-.2.6-.9.9-1.5.6-.6-.2-.9-.9-.6-1.5l2.9-7.2c1.3-3.1 3.5-7.2 8.5-7.4h4.6c5 .2 7.2 4.3 8.5 7.4l2.9 7.2c.2.6-.1 1.3-.6 1.5-.1.1-.2.1-.4.1zm-13.6-3.9l1 .8 1-.8-.7-6h-.6l-.7 6zm.6-8.3h.8L37 36h-1.5l.3 1.8zM1.2 50c-.1 0-.3 0-.4-.1-.6-.2-.9-.9-.6-1.5L3 41.3c1.3-3.2 3.6-7.3 8.8-7.3h3.8c2.8 0 5.1 1.2 6.8 3.7 0 0 .2.2.3.4.6.8.7 1 .8 1 .4.5.2 1.2-.3 1.6-.5.3-1.2.2-1.6-.3-.1-.1-.5-.6-.7-.9-.2-.2-.3-.4-.3-.5-.8-1.1-1.7-1.9-2.7-2.3L14.6 41c-.2.3-.6.5-.9.5-.4 0-.7-.2-.9-.5l-3.2-4.3c-1.8.7-3.2 2.5-4.4 5.5l-2.9 7.1c-.2.4-.7.7-1.1.7zm11-13.7l1.5 2.1 1.5-2.1h-3zM18.4 50H6c-.6 0-1.2-.5-1.2-1.2s.5-1.2 1.2-1.2h12.4c.6 0 1.2.5 1.2 1.2S19 50 18.4 50zm23-8.4c-.6 0-1.2-.5-1.2-1.2v-.1c0-.6.5-1.2 1.2-1.2.6 0 1.2.5 1.2 1.2v.1c0 .7-.5 1.2-1.2 1.2zm-27.7-9.3c-3.2 0-5.9-2.6-5.9-5.8 0-2.7 1.8-4.9 4.2-5.6.4-.1.8-.2 1.2-.2H13.5c2.9 0 5.3 2.1 5.8 4.9.1.3.1.6.1 1 .2 3.1-2.5 5.7-5.7 5.7zm-2.1-8.7c-.9.6-1.5 1.7-1.5 2.9 0 2 1.6 3.5 3.6 3.5 1.7 0 3.1-1.1 3.5-2.7-2.6 0-4.7-1.5-5.6-3.7zm2.2-.7c.5 1.2 1.7 2 3.1 2.1-.5-1.2-1.7-2-3.1-2.1zM36.2 32c-3.3 0-6-2.7-6-5.9 0-3.3 2.7-5.9 6-5.9.4 0 .8 0 1.2.1h.1c2.7.6 4.7 2.9 4.7 5.8-.1 3.3-2.8 5.9-6 5.9zm-2.1-8.9c-1 .7-1.6 1.7-1.6 3 0 2 1.6 3.6 3.6 3.6s3.6-1.6 3.6-3.6c0-1.5-.9-2.8-2.2-3.3-.5.6-1.1 1.1-1.8 1.5-.6.3-1.3.1-1.6-.4v-.8zM8.7 20c-.2 0-.4-.1-.6-.2-.4-.2-.6-.6-.6-1V8.5c0-2 1.7-3.7 3.7-3.7h4.1c.6 0 1.2.5 1.2 1.2 0 .6-.5 1.2-1.2 1.2h-4.1c-.8 0-1.4.6-1.4 1.4V17l1.6-.9c.2-.1.4-.1.6-.1h10.1c.6 0 1.2.5 1.2 1.2s-.5 1.2-1.2 1.2h-9.8l-3.1 1.7c-.2-.2-.4-.1-.5-.1zm27.5-2.4c-.3 0-.6-.1-.9-.4l-3.6-3.9h-9.4c-2 0-3.7-1.6-3.7-3.7v-6c0-2 1.7-3.7 3.7-3.7h11.3c2 0 3.7 1.6 3.7 3.7v12.8c0 .5-.3.9-.7 1.1-.2.1-.3.1-.4.1zM22.3 2.3c-.8 0-1.4.6-1.4 1.4v6c0 .7.6 1.4 1.4 1.4h9.9c.3 0 .6.1.9.4l1.9 2.1V3.7c0-.7-.6-1.4-1.4-1.4H22.3zm-7.2 9.2H13c-.6 0-1.2-.5-1.2-1.2 0-.6.5-1.2 1.2-1.2h2.1c.6 0 1.2.5 1.2 1.2-.1.6-.6 1.2-1.2 1.2zm16.5-4.8h-4.8c-.6 0-1.2-.5-1.2-1.2 0-.6.5-1.2 1.2-1.2h4.8c.6 0 1.2.5 1.2 1.2s-.6 1.2-1.2 1.2z"/>
	</symbol>
	<symbol id="eurologo-icon" viewBox="0 0 50 50">
		<path d="M15.4 44.3l.7 2.2-1.9-1.4-1.9 1.4.7-2.2-1.8-1.3h2.3l.7-2.2.7 2.2h2.2l-1.7 1.3zM28 45.8h-2.2l-.8-2.1-.7 2.1H22l1.9 1.3-.7 2.2L25 48l1.9 1.4-.7-2.2 1.8-1.4zm18.5-10.7h-2.2l-.7-2.1-.7 2.1h-2.2l1.8 1.3-.7 2.2 1.9-1.3 1.9 1.4-.7-2.2 1.6-1.4zM38.7 43h-2.2l-.6-2.2L35 43h-2.2l1.8 1.3-.7 2.2 1.9-1.4 1.9 1.4-.8-2.2 1.8-1.3zM9.3 35.1H7L6.4 33l-.8 2.1H3.4l1.8 1.3-.7 2.2 1.9-1.3 1.9 1.4-.8-2.2 1.8-1.4zM6.4 24.3H4.2l-.6-2.1-.8 2.1-2.2.1 1.8 1.3-.7 2.2 1.9-1.3L5.5 28l-.8-2.2 1.7-1.5zM17.2 5.8H15l-.7-2.1-.7 2.1h-2.3l1.9 1.3-.7 2.2 1.9-1.4 1.9 1.4-.7-2.2 1.6-1.3zm-7.9 7.8H7l-.6-2.1-.8 2.1H3.4l1.8 1.3-.7 2.2 1.9-1.4 1.9 1.4-.8-2.2 1.8-1.3zM28 2.7h-2.2L25 .6l-.7 2.1-2.3.1 1.9 1.3-.7 2.2L25 4.9l1.9 1.4-.7-2.2L28 2.7zm10.7 3.1h-2.2l-.6-2.1-.9 2.1h-2.2l1.8 1.3-.7 2.2 1.9-1.4 1.9 1.4-.8-2.2 1.8-1.3zm10.8 18.5h-2.2l-.6-2.1-.8 2.1-2.2.1 1.8 1.3-.7 2.2 1.9-1.3 1.8 1.4-.7-2.2 1.7-1.5zm-3-10.7h-2.2l-.7-2.1-.7 2.1h-2.2l1.8 1.3-.7 2.2 1.9-1.4 1.9 1.4-.7-2.2 1.6-1.3z"/>
	</symbol>
	<symbol id="lists-icon" viewBox="0 0 50 50">
		<path d="M35.6 50H3.9c-.7 0-1.2-.6-1.2-1.2v-38c0-.7.6-1.2 1.2-1.2h31.7c.7 0 1.2.6 1.2 1.2v2.4h3.1c.7 0 1.2.6 1.2 1.2s-.6 1.2-1.2 1.2h-3.1v3.2h1.5c.7 0 1.2.6 1.2 1.2 0 .7-.6 1.2-1.2 1.2h-1.5v3.2h3.1c.7 0 1.2.6 1.2 1.2 0 .7-.6 1.2-1.2 1.2h-3.1V30h1.5c.7 0 1.2.6 1.2 1.2 0 .7-.6 1.2-1.2 1.2h-1.5v16.2c0 .8-.5 1.4-1.2 1.4zM5.1 47.5h29.2V12H5.1v35.5zm20.6-2.3c-3.2 0-5.8-2.6-5.8-5.8 0-3.2 2.6-5.8 5.8-5.8 3.2 0 5.8 2.6 5.8 5.8-.1 3.3-2.7 5.8-5.8 5.8zm0-9c-1.8 0-3.3 1.5-3.3 3.3s1.5 3.3 3.3 3.3c1.8 0 3.3-1.5 3.3-3.3s-1.5-3.3-3.3-3.3zm20.4 4.3h-5.6c-.7 0-1.2-.6-1.2-1.2 0-.7.6-1.2 1.2-1.2h4.4V2.5H15.7v3.9c0 .7-.6 1.2-1.2 1.2-.7 0-1.2-.6-1.2-1.2V1.2c0-.7.6-1.2 1.2-1.2h31.7c.7 0 1.2.6 1.2 1.2v38c-.1.7-.6 1.3-1.3 1.3zm-29.9-4.2h-6c-.7 0-1.2-.6-1.2-1.2 0-.7.6-1.2 1.2-1.2h6c.7 0 1.2.6 1.2 1.2.1.6-.5 1.2-1.2 1.2zm13.1-5.5H10.2c-.7 0-1.2-.6-1.2-1.2s.6-1.2 1.2-1.2h19.1c.7 0 1.2.6 1.2 1.2s-.5 1.2-1.2 1.2zm0-5.4H10.2c-.7 0-1.2-.6-1.2-1.2 0-.7.6-1.2 1.2-1.2h19.1c.7 0 1.2.6 1.2 1.2s-.5 1.2-1.2 1.2zm-13.1-5.5h-6c-.7 0-1.2-.6-1.2-1.2 0-.7.6-1.2 1.2-1.2h6c.7 0 1.2.6 1.2 1.2.1.6-.5 1.2-1.2 1.2z"/>
	</symbol>
	<symbol id="book-icon" viewBox="0 0 50 50">
		<path d="M25 50h-.2c-13-2.3-22-10.2-22-19.1V1.2C2.8.5 3.3 0 4 0h42c.7 0 1.2.5 1.2 1.2v29.6c0 9-9.1 16.8-22 19.1-.1.1-.1.1-.2.1zM5.2 2.4v28.4c0 3.8 1.9 7.4 5.6 10.5 3.6 3 8.6 5.2 14.3 6.3 5.6-1 10.7-3.2 14.3-6.3C43 38.2 45 34.6 45 30.8V2.4H5.2zM25 36.5c-.1 0-.2 0-.4-.1l-13.2-4.1c-.5-.2-.8-.6-.8-1.2V11.9c0-.4.2-.7.5-1 .3-.2.7-.3 1.1-.2l12.8 4 12.8-4c.4-.1.8 0 1.1.2.3.2.5.6.5 1v19.2c0 .5-.3 1-.8 1.2l-13.2 4.1c-.2.1-.3.1-.4.1zm1.2-19.6v16.7L37 30.3V13.6l-10.8 3.3zM13 30.3l10.8 3.4V16.9L13 13.6v16.7zm16.5-3.9c-.5 0-1-.3-1.2-.8-.2-.6.2-1.3.8-1.5l4.2-1.3c.6-.2 1.3.2 1.5.8.2.6-.2 1.3-.8 1.5l-4.2 1.3h-.3zm-9 0c-.1 0-.2 0-.4-.1L16 25c-.6-.2-1-.9-.8-1.5.2-.6.9-1 1.5-.8l4.2 1.3c.6.2 1 .9.8 1.5-.2.6-.7.9-1.2.9zm9-4.9c-.5 0-1-.3-1.2-.8-.2-.6.2-1.3.8-1.5l4.2-1.3c.6-.2 1.3.2 1.5.8.2.6-.2 1.3-.8 1.5l-4.2 1.3h-.3zm-9 0c-.1 0-.2 0-.4-.1L16 20.2c-.6-.2-1-.9-.8-1.5.2-.6.9-1 1.5-.8l4.2 1.3c.6.2 1 .9.8 1.5-.2.5-.7.8-1.2.8z"/>
	</symbol>
	<symbol id="question-icon" viewBox="0 0 50 50">
		<path d="M46.6 50c-.6 0-1.1-.3-1.3-.9l-5-12.3c-2.7-6.7-5.9-9.9-10.4-10.5l-1.1 5.5 1.4 12.9c.1.5-.1 1-.5 1.3l-3.2 2.5c-.3.2-.6.3-.9.3h-1.1c-.3 0-.7-.1-.9-.3L20.4 46c-.4-.3-.6-.8-.5-1.3l1.4-12.9-1.1-5.5c-4.5.6-7.7 3.8-10.4 10.5l-5 12.3c-.3.7-1.1 1.1-1.9.8-.8-.3-1.2-1.2-.9-1.9l5-12.3c1.5-3.8 3.2-6.5 5.1-8.5 2.4-2.5 5.4-3.8 8.9-3.9h7.9c3.5.1 6.5 1.5 8.9 3.9 2 2 3.6 4.7 5.1 8.5L48 48c.3.7-.1 1.6-.8 1.9-.2.1-.4.1-.6.1zm-21.7-4.1h.1l2.2-1.7-1.2-11h-2l-1.2 11 2.1 1.7zm-1-15.7h2.2l.8-4.1H23l.9 4.1zM34 35.6c-.8 0-1.5-.6-1.5-1.5v-.2c0-.8.6-1.5 1.5-1.5.8 0 1.5.6 1.5 1.5v.2c-.1.9-.7 1.5-1.5 1.5zm-9-16.4c-5.3 0-9.6-4.3-9.6-9.6S19.7 0 25 0c.6 0 1.3.1 1.9.2h.1c4.4.9 7.6 4.8 7.6 9.4 0 5.3-4.3 9.6-9.6 9.6zM23.5 3.1c-3 .7-5.2 3.4-5.2 6.5 0 3.7 3 6.7 6.7 6.7s6.7-3 6.7-6.7c0-2.9-1.8-5.4-4.4-6.3-.8 1.1-1.9 2.1-3.1 2.8-.7.4-1.6.1-2-.6-.4-.7-.1-1.6.6-2 .2-.1.5-.2.7-.4zM40 13.5c-.2-.2 0-1.2 0-1.2 0-.4.1-.8.3-1.2.2-.3.4-.7.6-.9.3-.3.5-.6.8-.8.3-.3.6-.5.8-.8.3-.3.5-.6.6-.9.2-.3.3-.7.3-1.1 0-.3 0-.6-.1-.9 0-.3-.2-.5-.3-.7-.2-.2-.4-.4-.7-.5-.3-.1-.6-.2-1-.2-.3 0-.7.1-.9.2-.3.2-.5.4-.7.7-.2.3-.4.6-.5 1-.2.4.1 1-.2 1.3-.3.4-1.7.4-2 0-.5-.5.2-1.4.4-2 .2-.6.5-1.1.9-1.5.4-.4.9-.8 1.4-1 .5-.2 1.1-.4 1.7-.4.8 0 1.4.1 2 .3.5.2 1 .5 1.3.9.3.4.6.8.7 1.3.2.5.2 1 .2 1.4 0 .4-.1.8-.2 1.2-.2.4-.3.7-.6 1-.2.3-.5.6-.8.9-.3.3-.5.6-.8.9l-.6.9c-.2.3-.2.6-.2 1 0 0 .2.9 0 1.1-.3.5-1.9.4-2.4 0zm2.5 1.8c.4.4.4 1.9 0 2.2-.4.4-2 .4-2.4 0-.4-.4-.4-1.8 0-2.2.3-.5 1.9-.4 2.4 0z"/>
	</symbol>
	<symbol id="person-icon" viewBox="0 0 50 50">
		<path d="M46.6 50c-.6 0-1.1-.3-1.3-.9l-5-12.3c-2.7-6.7-5.9-9.9-10.4-10.5l-1.1 5.5 1.4 12.9c.1.5-.1 1-.5 1.3l-3.2 2.5c-.3.2-.6.3-.9.3h-1.1c-.3 0-.7-.1-.9-.3L20.4 46c-.4-.3-.6-.8-.5-1.3l1.4-12.9-1.1-5.5c-4.5.6-7.7 3.8-10.4 10.5l-5 12.3c-.3.7-1.1 1.1-1.9.8-.8-.3-1.2-1.2-.9-1.9l5-12.3c1.5-3.8 3.2-6.5 5.1-8.5 2.4-2.5 5.4-3.8 8.9-3.9h7.9c3.5.1 6.5 1.5 8.9 3.9 2 2 3.6 4.7 5.1 8.5L48 48c.3.7-.1 1.6-.8 1.9-.2.1-.4.1-.6.1zm-21.7-4.1h.1l2.2-1.7-1.2-11h-2l-1.2 11 2.1 1.7zm-1-15.7h2.2l.8-4.1H23l.9 4.1zM34 35.6c-.8 0-1.5-.6-1.5-1.5v-.2c0-.8.6-1.5 1.5-1.5.8 0 1.5.6 1.5 1.5v.2c-.1.9-.7 1.5-1.5 1.5zm-9-16.4c-5.3 0-9.6-4.3-9.6-9.6S19.7 0 25 0c.6 0 1.3.1 1.9.2h.1c4.4.9 7.6 4.8 7.6 9.4 0 5.3-4.3 9.6-9.6 9.6zM23.5 3.1c-3 .7-5.2 3.4-5.2 6.5 0 3.7 3 6.7 6.7 6.7s6.7-3 6.7-6.7c0-2.9-1.8-5.4-4.4-6.3-.8 1.1-1.9 2.1-3.1 2.8-.7.4-1.6.1-2-.6-.4-.7-.1-1.6.6-2 .2-.1.5-.2.7-.4z"/>
	</symbol>
	<symbol id="company-icon" viewBox="0 0 50 50">
		<path d="M48.9 47H1.1C.5 47 0 46.5 0 45.9c0-.6.5-1.1 1.1-1.1H49c.6 0 1.1.5 1.1 1.1-.1.6-.6 1.1-1.2 1.1zM47 42.1c-.6 0-1.1-.5-1.1-1.1V17.7H19.6c-.6 0-1.1-.5-1.1-1.1 0-.6.5-1.1 1.1-1.1H47c.6 0 1.1.5 1.1 1.1v24.5c0 .6-.5 1-1.1 1zm-36.8 0c-.6 0-1.1-.5-1.1-1.1V23.7c0-.6.5-1.1 1.1-1.1.6 0 1.1.5 1.1 1.1v17.4c0 .6-.5 1-1.1 1zM42.5 40h-4.3c-.6 0-1.1-.5-1.1-1.1v-6.2c0-.6.5-1.1 1.1-1.1h4.3c.6 0 1.1.5 1.1 1.1V39c0 .6-.5 1-1.1 1zm-3.3-2.1h2.2v-4h-2.2v4zM33.9 40h-4.3c-.6 0-1.1-.5-1.1-1.1v-6.2c0-.6.5-1.1 1.1-1.1h4.3c.6 0 1.1.5 1.1 1.1V39c-.1.6-.6 1-1.1 1zm-3.3-2.1h2.2v-4h-2.2v4zM25.2 40h-4.3c-.6 0-1.1-.5-1.1-1.1v-6.2c0-.6.5-1.1 1.1-1.1h4.3c.6 0 1.1.5 1.1 1.1V39c0 .6-.5 1-1.1 1zM22 37.9h2.2v-4H22v4zM5.5 35.7c-.3 0-.7-.2-.9-.5-.7-1-1-2.2-1.1-3.4C1.4 30.7 0 28.4 0 25.9c0-2.5 1.4-4.7 3.6-5.9.2-3.5 3.1-6.4 6.7-6.4s6.5 2.8 6.7 6.4c2.2 1.1 3.6 3.4 3.6 5.9 0 2.5-1.4 4.7-3.6 5.9-.1 1.2-.4 2.3-1.1 3.3-.3.5-1 .6-1.5.3s-.6-1-.3-1.5c.5-.7.7-1.6.7-2.5v-.3c0-.5.2-.9.7-1.1 1.7-.7 2.9-2.4 2.9-4.2 0-1.8-1.2-3.5-2.9-4.2-.4-.2-.7-.6-.7-1.1v-.3c0-2.5-2-4.5-4.5-4.5s-4.5 2-4.5 4.5v.3c0 .5-.2.9-.7 1.1-1.7.7-2.9 2.4-2.9 4.2 0 1.8 1.2 3.5 2.9 4.2.4.2.7.6.7 1.1v.3c0 .9.3 1.7.7 2.5.3.5.2 1.1-.3 1.5-.3.2-.5.3-.7.3zm37-6.7h-4.3c-.6 0-1.1-.5-1.1-1.1v-6.2c0-.6.5-1.1 1.1-1.1h4.3c.6 0 1.1.5 1.1 1.1v6.2c0 .6-.5 1.1-1.1 1.1zm-3.3-2.2h2.2v-4h-2.2v4zM33.9 29h-4.3c-.6 0-1.1-.5-1.1-1.1v-6.2c0-.6.5-1.1 1.1-1.1h4.3c.6 0 1.1.5 1.1 1.1v6.2c-.1.6-.6 1.1-1.1 1.1zm-3.3-2.2h2.2v-4h-2.2v4zM25.2 29h-2c-.6 0-1.1-.5-1.1-1.1 0-.6.5-1.1 1.1-1.1h.9v-4h-.9c-.6 0-1.1-.5-1.1-1.1s.5-1.1 1.1-1.1h2c.6 0 1.1.5 1.1 1.1v6.2c0 .6-.5 1.1-1.1 1.1zm18.7-15.4c-.6 0-1.1-.5-1.1-1.1V5.2h-15v7.4c0 .6-.5 1.1-1.1 1.1s-1.1-.5-1.1-1.1V4.1c0-.6.5-1.1 1.1-1.1h17.2c.6 0 1.1.5 1.1 1.1v8.5c-.1.6-.5 1-1.1 1zm-4.4-1.7c-.6 0-1.1-.5-1.1-1.1v-2c0-.6.5-1.1 1.1-1.1.6 0 1.1.5 1.1 1.1v2.1c-.1.5-.5 1-1.1 1zm-4.2 0c-.6 0-1.1-.5-1.1-1.1v-2c0-.6.5-1.1 1.1-1.1.6 0 1.1.5 1.1 1.1v2.1c0 .5-.5 1-1.1 1zm-4.2 0c-.6 0-1.1-.5-1.1-1.1v-2c0-.6.5-1.1 1.1-1.1.6 0 1.1.5 1.1 1.1v2.1c0 .5-.5 1-1.1 1z"/>
	</symbol>
	<symbol id="box-companies-icon" viewBox="0 0 50 50">
		<path d="M47.2 18.2L31.8 2.8C28-1 21.9-1 18.1 2.8L2.8 18.2C-1 22-1 28.1 2.8 31.9l15.3 15.3c3.8 3.8 9.9 3.8 13.7 0l15.3-15.3c3.8-3.8 3.8-10 .1-13.7zm-4.1 9.6L27.8 43.1c-1.5 1.6-4 1.6-5.6.1l-.1-.1L6.9 27.8c-1.6-1.5-1.6-4-.1-5.6l.1-.1L22.1 6.9c1.5-1.6 4-1.6 5.6-.1l.1.1 15.3 15.3c1.6 1.5 1.6 4 0 5.6.1 0 0 0 0 0zm-9.5-5.7h-5.7v-5.7c0-1.6-1.3-2.9-2.9-2.9s-2.9 1.3-2.9 2.9v5.7h-5.7c-1.6 0-2.9 1.3-2.9 2.9s1.3 2.9 2.9 2.9h5.7v5.7c0 1.6 1.3 2.9 2.9 2.9s2.9-1.3 2.9-2.9v-5.7h5.7c1.6 0 2.9-1.3 2.9-2.9s-1.4-2.9-2.9-2.9z"/>
	</symbol>
	<symbol id="arrow-icon" viewBox="0 0 10 10">
		<path d="M9.6 4.3L6.8 1.4c-.3-.3-.9-.3-1.3 0-.3.3-.3.9 0 1.3L7 4.1H.9c-.5 0-.9.4-.9.9s.4.9.9.9H7L5.5 7.3c-.3.3-.3.9 0 1.3.3.3.9.3 1.3 0l2.9-2.9c.2-.2.3-.5.3-.7 0-.3-.1-.5-.4-.7z"/>
	</symbol>
	<symbol id="paging-arrow" viewBox="0 0 30 60">
		<path  d="M30 57.8L28 60 0 29.9 27.9 0l2 2.2L4 29.9l26 27.9"/>
	</symbol>
	<symbol id="paging-double-arrow" viewBox="0 0 50 60">
		<path d="M29.4 57.8l-2 2.2L0 29.9 27.3 0l2 2.2L4 29.9l25.4 27.9m20.6 0L48 60 20.6 29.9 47.9 0l2 2.2-25.3 27.7L50 57.8"/>
	</symbol>
</svg>